<mxfile host="app.diagrams.net" modified="2021-09-22T20:29:09.930Z" agent="5.0 (Windows NT 10.0; Win64; x64) AppleWebKit/537.36 (KHTML, like Gecko) Chrome/93.0.4577.82 Safari/537.36" etag="2Aw7ZKsKZp9n8HHFYPCk" version="15.2.9" type="github">
  <diagram name="Page-1" id="edf60f1a-56cd-e834-aa8a-f176f3a09ee4">
    <mxGraphModel dx="1422" dy="882" grid="1" gridSize="10" guides="1" tooltips="1" connect="1" arrows="1" fold="1" page="0" pageScale="1" pageWidth="1100" pageHeight="850" background="none" math="0" shadow="0">
      <root>
        <mxCell id="0" />
        <mxCell id="1" parent="0" />
        <mxCell id="kyuIWAiviXWfNQKXcW1D-5" style="edgeStyle=orthogonalEdgeStyle;rounded=0;orthogonalLoop=1;jettySize=auto;html=1;exitX=0.5;exitY=1;exitDx=0;exitDy=0;entryX=0.5;entryY=0;entryDx=0;entryDy=0;" edge="1" parent="1" source="kyuIWAiviXWfNQKXcW1D-1" target="kyuIWAiviXWfNQKXcW1D-2">
          <mxGeometry relative="1" as="geometry" />
        </mxCell>
        <mxCell id="kyuIWAiviXWfNQKXcW1D-25" style="edgeStyle=orthogonalEdgeStyle;rounded=0;orthogonalLoop=1;jettySize=auto;html=1;exitX=1;exitY=0.5;exitDx=0;exitDy=0;entryX=0.5;entryY=0;entryDx=0;entryDy=0;" edge="1" parent="1" source="kyuIWAiviXWfNQKXcW1D-1" target="kyuIWAiviXWfNQKXcW1D-19">
          <mxGeometry relative="1" as="geometry" />
        </mxCell>
        <mxCell id="kyuIWAiviXWfNQKXcW1D-1" value="Want to start a game?" style="rhombus;whiteSpace=wrap;html=1;" vertex="1" parent="1">
          <mxGeometry x="440" y="160" width="240" height="80" as="geometry" />
        </mxCell>
        <mxCell id="kyuIWAiviXWfNQKXcW1D-73" style="edgeStyle=orthogonalEdgeStyle;rounded=0;orthogonalLoop=1;jettySize=auto;html=1;exitX=0.5;exitY=1;exitDx=0;exitDy=0;" edge="1" parent="1" source="kyuIWAiviXWfNQKXcW1D-2" target="kyuIWAiviXWfNQKXcW1D-33">
          <mxGeometry relative="1" as="geometry" />
        </mxCell>
        <mxCell id="kyuIWAiviXWfNQKXcW1D-2" value="Create 2 lists: 1 for gamer, 1 for dealer.&lt;br&gt;Randomly pick 2 cards for each." style="rounded=1;whiteSpace=wrap;html=1;" vertex="1" parent="1">
          <mxGeometry x="440" y="280" width="240" height="60" as="geometry" />
        </mxCell>
        <mxCell id="kyuIWAiviXWfNQKXcW1D-8" style="edgeStyle=orthogonalEdgeStyle;rounded=0;orthogonalLoop=1;jettySize=auto;html=1;exitX=0.5;exitY=1;exitDx=0;exitDy=0;entryX=0.5;entryY=0;entryDx=0;entryDy=0;" edge="1" parent="1" source="kyuIWAiviXWfNQKXcW1D-3" target="kyuIWAiviXWfNQKXcW1D-4">
          <mxGeometry relative="1" as="geometry" />
        </mxCell>
        <mxCell id="kyuIWAiviXWfNQKXcW1D-11" style="edgeStyle=orthogonalEdgeStyle;rounded=0;orthogonalLoop=1;jettySize=auto;html=1;exitX=1;exitY=0.5;exitDx=0;exitDy=0;entryX=0;entryY=0.5;entryDx=0;entryDy=0;" edge="1" parent="1" source="kyuIWAiviXWfNQKXcW1D-3" target="kyuIWAiviXWfNQKXcW1D-10">
          <mxGeometry relative="1" as="geometry" />
        </mxCell>
        <mxCell id="kyuIWAiviXWfNQKXcW1D-3" value="Check dealer has sum == 21?" style="rhombus;whiteSpace=wrap;html=1;" vertex="1" parent="1">
          <mxGeometry x="440" y="480" width="240" height="80" as="geometry" />
        </mxCell>
        <mxCell id="kyuIWAiviXWfNQKXcW1D-16" style="edgeStyle=orthogonalEdgeStyle;rounded=0;orthogonalLoop=1;jettySize=auto;html=1;exitX=0;exitY=0.5;exitDx=0;exitDy=0;entryX=1;entryY=0.5;entryDx=0;entryDy=0;" edge="1" parent="1" source="kyuIWAiviXWfNQKXcW1D-4" target="kyuIWAiviXWfNQKXcW1D-15">
          <mxGeometry relative="1" as="geometry" />
        </mxCell>
        <mxCell id="kyuIWAiviXWfNQKXcW1D-82" style="edgeStyle=orthogonalEdgeStyle;rounded=0;orthogonalLoop=1;jettySize=auto;html=1;exitX=0.5;exitY=1;exitDx=0;exitDy=0;entryX=0.5;entryY=0;entryDx=0;entryDy=0;" edge="1" parent="1" source="kyuIWAiviXWfNQKXcW1D-4" target="kyuIWAiviXWfNQKXcW1D-81">
          <mxGeometry relative="1" as="geometry" />
        </mxCell>
        <mxCell id="kyuIWAiviXWfNQKXcW1D-4" value="Check gamer has sum == 21?" style="rhombus;whiteSpace=wrap;html=1;" vertex="1" parent="1">
          <mxGeometry x="440" y="600" width="240" height="80" as="geometry" />
        </mxCell>
        <mxCell id="kyuIWAiviXWfNQKXcW1D-6" value="Yes" style="text;html=1;align=center;verticalAlign=middle;resizable=0;points=[];autosize=1;strokeColor=none;fillColor=none;" vertex="1" parent="1">
          <mxGeometry x="560" y="250" width="40" height="20" as="geometry" />
        </mxCell>
        <mxCell id="kyuIWAiviXWfNQKXcW1D-9" value="No" style="text;html=1;align=center;verticalAlign=middle;resizable=0;points=[];autosize=1;strokeColor=none;fillColor=none;" vertex="1" parent="1">
          <mxGeometry x="565" y="570" width="30" height="20" as="geometry" />
        </mxCell>
        <mxCell id="kyuIWAiviXWfNQKXcW1D-24" style="edgeStyle=orthogonalEdgeStyle;rounded=0;orthogonalLoop=1;jettySize=auto;html=1;exitX=0.5;exitY=0;exitDx=0;exitDy=0;entryX=0.5;entryY=0;entryDx=0;entryDy=0;" edge="1" parent="1" source="kyuIWAiviXWfNQKXcW1D-10" target="kyuIWAiviXWfNQKXcW1D-1">
          <mxGeometry relative="1" as="geometry">
            <Array as="points">
              <mxPoint x="860" y="120" />
              <mxPoint x="560" y="120" />
            </Array>
          </mxGeometry>
        </mxCell>
        <mxCell id="kyuIWAiviXWfNQKXcW1D-10" value="Dealer Wins" style="rounded=1;whiteSpace=wrap;html=1;" vertex="1" parent="1">
          <mxGeometry x="800" y="490" width="120" height="60" as="geometry" />
        </mxCell>
        <mxCell id="kyuIWAiviXWfNQKXcW1D-12" value="Yes" style="text;html=1;align=center;verticalAlign=middle;resizable=0;points=[];autosize=1;strokeColor=none;fillColor=none;" vertex="1" parent="1">
          <mxGeometry x="720" y="490" width="40" height="20" as="geometry" />
        </mxCell>
        <mxCell id="kyuIWAiviXWfNQKXcW1D-23" style="edgeStyle=orthogonalEdgeStyle;rounded=0;orthogonalLoop=1;jettySize=auto;html=1;exitX=0.5;exitY=0;exitDx=0;exitDy=0;entryX=0.5;entryY=0;entryDx=0;entryDy=0;" edge="1" parent="1" source="kyuIWAiviXWfNQKXcW1D-15" target="kyuIWAiviXWfNQKXcW1D-1">
          <mxGeometry relative="1" as="geometry">
            <Array as="points">
              <mxPoint x="260" y="120" />
              <mxPoint x="560" y="120" />
            </Array>
          </mxGeometry>
        </mxCell>
        <mxCell id="kyuIWAiviXWfNQKXcW1D-15" value="Gamer wins" style="rounded=1;whiteSpace=wrap;html=1;" vertex="1" parent="1">
          <mxGeometry x="200" y="610" width="120" height="60" as="geometry" />
        </mxCell>
        <mxCell id="kyuIWAiviXWfNQKXcW1D-17" value="Yes" style="text;html=1;align=center;verticalAlign=middle;resizable=0;points=[];autosize=1;strokeColor=none;fillColor=none;" vertex="1" parent="1">
          <mxGeometry x="360" y="610" width="40" height="20" as="geometry" />
        </mxCell>
        <mxCell id="kyuIWAiviXWfNQKXcW1D-19" value="End" style="rounded=1;whiteSpace=wrap;html=1;" vertex="1" parent="1">
          <mxGeometry x="710" y="240" width="120" height="40" as="geometry" />
        </mxCell>
        <mxCell id="kyuIWAiviXWfNQKXcW1D-21" value="No" style="text;html=1;align=center;verticalAlign=middle;resizable=0;points=[];autosize=1;strokeColor=none;fillColor=none;" vertex="1" parent="1">
          <mxGeometry x="705" y="210" width="30" height="20" as="geometry" />
        </mxCell>
        <mxCell id="kyuIWAiviXWfNQKXcW1D-30" style="edgeStyle=orthogonalEdgeStyle;rounded=0;orthogonalLoop=1;jettySize=auto;html=1;exitX=0.5;exitY=1;exitDx=0;exitDy=0;entryX=0.5;entryY=0;entryDx=0;entryDy=0;" edge="1" parent="1" source="kyuIWAiviXWfNQKXcW1D-27" target="kyuIWAiviXWfNQKXcW1D-28">
          <mxGeometry relative="1" as="geometry" />
        </mxCell>
        <mxCell id="kyuIWAiviXWfNQKXcW1D-27" value="Draw another card?" style="rhombus;whiteSpace=wrap;html=1;" vertex="1" parent="1">
          <mxGeometry x="440" y="820" width="240" height="80" as="geometry" />
        </mxCell>
        <mxCell id="kyuIWAiviXWfNQKXcW1D-80" style="edgeStyle=orthogonalEdgeStyle;rounded=0;orthogonalLoop=1;jettySize=auto;html=1;exitX=0.5;exitY=1;exitDx=0;exitDy=0;entryX=0.5;entryY=0;entryDx=0;entryDy=0;" edge="1" parent="1" source="kyuIWAiviXWfNQKXcW1D-28" target="kyuIWAiviXWfNQKXcW1D-79">
          <mxGeometry relative="1" as="geometry" />
        </mxCell>
        <mxCell id="kyuIWAiviXWfNQKXcW1D-83" style="edgeStyle=orthogonalEdgeStyle;rounded=0;orthogonalLoop=1;jettySize=auto;html=1;exitX=0;exitY=0.5;exitDx=0;exitDy=0;entryX=0;entryY=0.5;entryDx=0;entryDy=0;" edge="1" parent="1" source="kyuIWAiviXWfNQKXcW1D-28" target="kyuIWAiviXWfNQKXcW1D-33">
          <mxGeometry relative="1" as="geometry">
            <Array as="points">
              <mxPoint x="90" y="960" />
              <mxPoint x="90" y="415" />
            </Array>
          </mxGeometry>
        </mxCell>
        <mxCell id="kyuIWAiviXWfNQKXcW1D-28" value="Randomly pick a number for each" style="rounded=1;whiteSpace=wrap;html=1;" vertex="1" parent="1">
          <mxGeometry x="440" y="940" width="240" height="40" as="geometry" />
        </mxCell>
        <mxCell id="kyuIWAiviXWfNQKXcW1D-31" value="No" style="text;html=1;align=center;verticalAlign=middle;resizable=0;points=[];autosize=1;strokeColor=none;fillColor=none;" vertex="1" parent="1">
          <mxGeometry x="565" y="690" width="30" height="20" as="geometry" />
        </mxCell>
        <mxCell id="kyuIWAiviXWfNQKXcW1D-32" value="Yes" style="text;html=1;align=center;verticalAlign=middle;resizable=0;points=[];autosize=1;strokeColor=none;fillColor=none;" vertex="1" parent="1">
          <mxGeometry x="560" y="910" width="40" height="20" as="geometry" />
        </mxCell>
        <mxCell id="kyuIWAiviXWfNQKXcW1D-74" style="edgeStyle=orthogonalEdgeStyle;rounded=0;orthogonalLoop=1;jettySize=auto;html=1;exitX=0.5;exitY=1;exitDx=0;exitDy=0;entryX=0.5;entryY=0;entryDx=0;entryDy=0;" edge="1" parent="1" source="kyuIWAiviXWfNQKXcW1D-33" target="kyuIWAiviXWfNQKXcW1D-3">
          <mxGeometry relative="1" as="geometry" />
        </mxCell>
        <mxCell id="kyuIWAiviXWfNQKXcW1D-33" value="Calculate both cards values&lt;br&gt;Reveal dealer&#39;s first card, display gamer&#39;s cards and sum" style="rounded=1;whiteSpace=wrap;html=1;" vertex="1" parent="1">
          <mxGeometry x="440" y="390" width="240" height="50" as="geometry" />
        </mxCell>
        <mxCell id="kyuIWAiviXWfNQKXcW1D-39" style="edgeStyle=orthogonalEdgeStyle;rounded=0;orthogonalLoop=1;jettySize=auto;html=1;exitX=0.5;exitY=1;exitDx=0;exitDy=0;entryX=0.5;entryY=0;entryDx=0;entryDy=0;" edge="1" parent="1" source="kyuIWAiviXWfNQKXcW1D-34" target="kyuIWAiviXWfNQKXcW1D-35">
          <mxGeometry relative="1" as="geometry" />
        </mxCell>
        <mxCell id="kyuIWAiviXWfNQKXcW1D-34" value="Calculate card values" style="rounded=1;whiteSpace=wrap;html=1;" vertex="1" parent="1">
          <mxGeometry x="1120" y="120" width="200" height="40" as="geometry" />
        </mxCell>
        <mxCell id="kyuIWAiviXWfNQKXcW1D-40" style="edgeStyle=orthogonalEdgeStyle;rounded=0;orthogonalLoop=1;jettySize=auto;html=1;exitX=0.5;exitY=1;exitDx=0;exitDy=0;entryX=0.5;entryY=0;entryDx=0;entryDy=0;" edge="1" parent="1" source="kyuIWAiviXWfNQKXcW1D-35" target="kyuIWAiviXWfNQKXcW1D-37">
          <mxGeometry relative="1" as="geometry" />
        </mxCell>
        <mxCell id="kyuIWAiviXWfNQKXcW1D-53" style="edgeStyle=orthogonalEdgeStyle;rounded=0;orthogonalLoop=1;jettySize=auto;html=1;exitX=1;exitY=0.5;exitDx=0;exitDy=0;entryX=0.5;entryY=0;entryDx=0;entryDy=0;" edge="1" parent="1" source="kyuIWAiviXWfNQKXcW1D-35" target="kyuIWAiviXWfNQKXcW1D-52">
          <mxGeometry relative="1" as="geometry" />
        </mxCell>
        <mxCell id="kyuIWAiviXWfNQKXcW1D-35" value="Ace included?" style="rhombus;whiteSpace=wrap;html=1;" vertex="1" parent="1">
          <mxGeometry x="1120" y="200" width="200" height="80" as="geometry" />
        </mxCell>
        <mxCell id="kyuIWAiviXWfNQKXcW1D-36" value="Ace = 11, sum = n1+11" style="rounded=1;whiteSpace=wrap;html=1;" vertex="1" parent="1">
          <mxGeometry x="1000" y="480" width="160" height="60" as="geometry" />
        </mxCell>
        <mxCell id="kyuIWAiviXWfNQKXcW1D-42" style="edgeStyle=orthogonalEdgeStyle;rounded=0;orthogonalLoop=1;jettySize=auto;html=1;exitX=0.5;exitY=1;exitDx=0;exitDy=0;entryX=0.5;entryY=0;entryDx=0;entryDy=0;" edge="1" parent="1" source="kyuIWAiviXWfNQKXcW1D-37" target="kyuIWAiviXWfNQKXcW1D-36">
          <mxGeometry relative="1" as="geometry" />
        </mxCell>
        <mxCell id="kyuIWAiviXWfNQKXcW1D-46" style="edgeStyle=orthogonalEdgeStyle;rounded=0;orthogonalLoop=1;jettySize=auto;html=1;exitX=0.5;exitY=1;exitDx=0;exitDy=0;entryX=0.5;entryY=0;entryDx=0;entryDy=0;" edge="1" parent="1" source="kyuIWAiviXWfNQKXcW1D-37" target="kyuIWAiviXWfNQKXcW1D-44">
          <mxGeometry relative="1" as="geometry" />
        </mxCell>
        <mxCell id="kyuIWAiviXWfNQKXcW1D-37" value="sum = prev_sum (n1) +11&lt;br&gt;&amp;gt; 21?" style="rhombus;whiteSpace=wrap;html=1;" vertex="1" parent="1">
          <mxGeometry x="1120" y="320" width="200" height="80" as="geometry" />
        </mxCell>
        <mxCell id="kyuIWAiviXWfNQKXcW1D-41" value="Yes" style="text;html=1;align=center;verticalAlign=middle;resizable=0;points=[];autosize=1;strokeColor=none;fillColor=none;" vertex="1" parent="1">
          <mxGeometry x="1220" y="290" width="40" height="20" as="geometry" />
        </mxCell>
        <mxCell id="kyuIWAiviXWfNQKXcW1D-44" value="Ace = 1, sum = n1+1" style="rounded=1;whiteSpace=wrap;html=1;" vertex="1" parent="1">
          <mxGeometry x="1280" y="480" width="160" height="60" as="geometry" />
        </mxCell>
        <mxCell id="kyuIWAiviXWfNQKXcW1D-47" value="Yes" style="text;html=1;align=center;verticalAlign=middle;resizable=0;points=[];autosize=1;strokeColor=none;fillColor=none;" vertex="1" parent="1">
          <mxGeometry x="1260" y="420" width="40" height="20" as="geometry" />
        </mxCell>
        <mxCell id="kyuIWAiviXWfNQKXcW1D-48" value="No" style="text;html=1;align=center;verticalAlign=middle;resizable=0;points=[];autosize=1;strokeColor=none;fillColor=none;" vertex="1" parent="1">
          <mxGeometry x="1145" y="420" width="30" height="20" as="geometry" />
        </mxCell>
        <mxCell id="kyuIWAiviXWfNQKXcW1D-52" value="sum = n1+n2" style="rounded=1;whiteSpace=wrap;html=1;" vertex="1" parent="1">
          <mxGeometry x="1520" y="480" width="160" height="60" as="geometry" />
        </mxCell>
        <mxCell id="kyuIWAiviXWfNQKXcW1D-54" value="No" style="text;html=1;align=center;verticalAlign=middle;resizable=0;points=[];autosize=1;strokeColor=none;fillColor=none;" vertex="1" parent="1">
          <mxGeometry x="1345" y="220" width="30" height="20" as="geometry" />
        </mxCell>
        <mxCell id="kyuIWAiviXWfNQKXcW1D-56" value="Gamer wins" style="rounded=1;whiteSpace=wrap;html=1;" vertex="1" parent="1">
          <mxGeometry x="200" y="610" width="120" height="60" as="geometry" />
        </mxCell>
        <mxCell id="kyuIWAiviXWfNQKXcW1D-57" value="Yes" style="text;html=1;align=center;verticalAlign=middle;resizable=0;points=[];autosize=1;strokeColor=none;fillColor=none;" vertex="1" parent="1">
          <mxGeometry x="360" y="610" width="40" height="20" as="geometry" />
        </mxCell>
        <mxCell id="kyuIWAiviXWfNQKXcW1D-75" value="" style="endArrow=none;html=1;" edge="1" parent="1">
          <mxGeometry width="50" height="50" relative="1" as="geometry">
            <mxPoint x="560" y="121" as="sourcePoint" />
            <mxPoint x="560" y="81" as="targetPoint" />
          </mxGeometry>
        </mxCell>
        <mxCell id="kyuIWAiviXWfNQKXcW1D-79" value="Calculate both cards values" style="rounded=1;whiteSpace=wrap;html=1;" vertex="1" parent="1">
          <mxGeometry x="440" y="1020" width="240" height="50" as="geometry" />
        </mxCell>
        <mxCell id="kyuIWAiviXWfNQKXcW1D-81" value="Reveal dealer&#39;s first card, display gamer&#39;s cards and sum" style="rounded=1;whiteSpace=wrap;html=1;" vertex="1" parent="1">
          <mxGeometry x="440" y="720" width="240" height="60" as="geometry" />
        </mxCell>
      </root>
    </mxGraphModel>
  </diagram>
</mxfile>
